<svg width="460" height="439" viewBox="0 0 460 439" fill="none" xmlns="http://www.w3.org/2000/svg">
    <ellipse cx="230" cy="219.5" rx="230" ry="219.5" fill="#699BF7" fill-opacity="0.26" />
    <path
        d="M161.655 335.121C184.09 335.121 202.277 328.048 202.277 319.323C202.277 310.598 184.09 303.525 161.655 303.525C139.22 303.525 121.033 310.598 121.033 319.323C121.033 328.048 139.22 335.121 161.655 335.121Z"
        fill="#FFDB56" />
    <path
        d="M198.732 312.872C192.387 318.381 178.177 322.222 161.652 322.222C145.126 322.222 130.916 318.381 124.571 312.872C122.303 314.842 121.031 317.023 121.031 319.322C121.031 328.047 139.217 335.12 161.652 335.12C184.087 335.12 202.273 328.047 202.273 319.322C202.272 317.023 201 314.842 198.732 312.872Z"
        fill="#FFBB24" />
    <path
        d="M161.654 171.393C129.058 171.393 102.634 196.611 102.634 227.719C102.634 275.089 161.654 318.675 161.654 318.675C161.654 318.675 220.674 275.089 220.674 227.719C220.674 196.611 194.25 171.393 161.654 171.393ZM161.654 250.183C148.653 250.183 138.114 240.125 138.114 227.719C138.114 215.312 148.653 205.253 161.654 205.253C174.654 205.253 185.194 215.311 185.194 227.719C185.194 240.125 174.655 250.183 161.654 250.183Z"
        fill="#FF4A4A" />
    <path
        d="M161.652 171.393C159.366 171.393 157.112 171.521 154.894 171.763C184.306 174.963 207.156 198.793 207.156 227.719C207.156 265.112 170.386 300.141 154.894 313.241C159.027 316.736 161.652 318.676 161.652 318.676C161.652 318.676 220.671 275.09 220.671 227.72C220.671 196.611 194.248 171.393 161.652 171.393Z"
        fill="#E7343F" />
    <path
        d="M305.553 223.782C322.796 223.782 336.774 218.346 336.774 211.64C336.774 204.934 322.796 199.498 305.553 199.498C288.31 199.498 274.332 204.934 274.332 211.64C274.332 218.346 288.31 223.782 305.553 223.782Z"
        fill="#FFDB56" />
    <path
        d="M332.005 205.192C326.482 208.611 316.705 210.885 305.557 210.885C294.409 210.885 284.632 208.611 279.109 205.192C276.089 207.061 274.337 209.271 274.337 211.641C274.337 218.348 288.314 223.783 305.557 223.783C322.799 223.783 336.777 218.347 336.777 211.641C336.777 209.271 335.025 207.061 332.005 205.192Z"
        fill="#FFBB24" />
    <path
        d="M305.557 97.9475C280.505 97.9475 260.197 117.329 260.197 141.237C260.197 177.645 305.557 211.144 305.557 211.144C305.557 211.144 350.918 177.645 350.918 141.237C350.918 117.329 330.61 97.9475 305.557 97.9475ZM305.557 158.503C295.565 158.503 287.466 150.773 287.466 141.237C287.466 131.702 295.565 123.971 305.557 123.971C315.549 123.971 323.65 131.702 323.65 141.237C323.65 150.773 315.549 158.503 305.557 158.503Z"
        fill="#FF4A4A" />
    <path
        d="M305.558 97.9475C303.261 97.9475 301.005 98.1117 298.8 98.4262C320.646 101.541 337.402 119.521 337.402 141.237C337.402 168.783 311.44 194.66 298.8 205.626C302.866 209.155 305.558 211.144 305.558 211.144C305.558 211.144 350.918 177.645 350.918 141.237C350.918 117.329 330.61 97.9475 305.558 97.9475Z"
        fill="#E7343F" />
    <path
        d="M256.858 215.224C258.931 215.224 260.612 213.62 260.612 211.641C260.612 209.661 258.931 208.058 256.858 208.058H255.144C253.896 208.058 252.642 208.136 251.414 208.292C249.36 208.553 247.915 210.354 248.188 212.317C248.44 214.118 250.052 215.428 251.905 215.428C252.07 215.428 252.237 215.418 252.405 215.396C253.305 215.282 254.226 215.225 255.144 215.225H256.858V215.224Z"
        fill="black" />
    <path
        d="M244.445 315.556C244.439 315.556 244.434 315.556 244.428 315.556L239.469 315.577C237.396 315.586 235.723 317.198 235.732 319.176C235.741 321.15 237.42 322.743 239.486 322.743C239.492 322.743 239.498 322.743 239.503 322.743L244.462 322.722C246.535 322.713 248.208 321.101 248.199 319.122C248.19 317.149 246.51 315.556 244.445 315.556Z"
        fill="black" />
    <path
        d="M261.313 261.634C263.386 261.634 265.067 260.03 265.067 258.051C265.067 256.072 263.386 254.468 261.313 254.468H256.354C254.28 254.468 252.6 256.071 252.6 258.051C252.6 260.03 254.28 261.634 256.354 261.634H261.313Z"
        fill="black" />
    <path
        d="M233.19 224.235C233.852 224.689 234.618 224.908 235.377 224.908C236.545 224.908 237.696 224.389 238.429 223.415C239.244 222.332 240.178 221.324 241.205 220.42C242.729 219.079 242.825 216.812 241.419 215.357C240.013 213.904 237.639 213.812 236.114 215.153C234.714 216.385 233.441 217.758 232.33 219.234C231.121 220.842 231.506 223.081 233.19 224.235Z"
        fill="black" />
    <path
        d="M264.28 315.469C264.274 315.469 264.269 315.469 264.263 315.469L259.305 315.491C257.231 315.5 255.558 317.111 255.567 319.09C255.577 321.063 257.255 322.657 259.321 322.657C259.327 322.657 259.333 322.657 259.339 322.657L264.297 322.635C266.37 322.627 268.043 321.015 268.034 319.036C268.025 317.063 266.345 315.469 264.28 315.469Z"
        fill="black" />
    <path
        d="M224.61 315.641C224.604 315.641 224.599 315.641 224.593 315.641L219.634 315.663C217.561 315.671 215.888 317.283 215.897 319.262C215.906 321.235 217.585 322.829 219.651 322.829C219.657 322.829 219.662 322.829 219.668 322.829L224.627 322.807C226.7 322.798 228.373 321.187 228.364 319.208C228.355 317.234 226.676 315.641 224.61 315.641Z"
        fill="black" />
    <path
        d="M242.186 258.07C243.432 258.07 244.651 257.479 245.365 256.398C246.471 254.724 245.946 252.512 244.192 251.456C243.013 250.745 241.903 249.916 240.896 248.992C239.401 247.62 237.024 247.665 235.588 249.09C234.15 250.516 234.196 252.784 235.691 254.156C237.065 255.417 238.577 256.548 240.187 257.516C240.808 257.891 241.501 258.07 242.186 258.07Z"
        fill="black" />
    <path
        d="M234.962 238.623C234.71 237.388 234.582 236.118 234.582 234.846L234.583 234.647C234.607 232.669 232.946 231.046 230.872 231.023C230.858 231.023 230.843 231.023 230.828 231.023C228.775 231.023 227.098 232.599 227.074 234.564L227.073 234.847C227.073 236.577 227.248 238.309 227.592 239.994C227.941 241.705 229.512 242.892 231.273 242.892C231.51 242.892 231.752 242.87 231.995 242.825C234.03 242.447 235.358 240.565 234.962 238.623Z"
        fill="black" />
    <path
        d="M281.148 261.634C283.222 261.634 284.902 260.03 284.902 258.051C284.902 256.072 283.222 254.468 281.148 254.468H276.19C274.116 254.468 272.435 256.071 272.435 258.051C272.435 260.03 274.116 261.634 276.19 261.634H281.148Z"
        fill="black" />
    <path
        d="M339.095 268.158C340.204 268.158 341.304 267.69 342.045 266.795C343.329 265.242 343.052 262.989 341.425 261.763C339.978 260.673 338.432 259.683 336.828 258.822C335.023 257.85 332.732 258.461 331.715 260.185C330.697 261.909 331.336 264.094 333.143 265.065C334.408 265.746 335.63 266.527 336.772 267.387C337.461 267.907 338.28 268.158 339.095 268.158Z"
        fill="black" />
    <path
        d="M323.254 314.977C322.025 315.14 320.766 315.225 319.51 315.23L318.807 315.233C316.734 315.243 315.061 316.855 315.071 318.833C315.082 320.806 316.76 322.399 318.825 322.399C318.831 322.399 318.837 322.399 318.843 322.399L319.545 322.396C321.13 322.389 322.724 322.282 324.282 322.076C326.336 321.805 327.771 319.996 327.487 318.036C327.202 316.077 325.304 314.705 323.254 314.977Z"
        fill="black" />
    <path
        d="M338.75 307.838C337.697 308.796 336.557 309.682 335.361 310.474C333.657 311.601 333.234 313.833 334.414 315.46C335.144 316.464 336.314 317.002 337.503 317.002C338.241 317.002 338.986 316.795 339.639 316.364C341.152 315.362 342.596 314.239 343.929 313.027C345.431 311.662 345.488 309.394 344.057 307.962C342.627 306.527 340.251 306.473 338.75 307.838Z"
        fill="black" />
    <path
        d="M351.363 290.559C349.329 290.193 347.363 291.472 346.979 293.417C346.709 294.78 346.326 296.134 345.839 297.439C345.143 299.303 346.161 301.352 348.114 302.017C348.531 302.159 348.957 302.226 349.375 302.226C350.917 302.226 352.363 301.312 352.911 299.846C353.53 298.19 354.017 296.473 354.358 294.743C354.741 292.799 353.401 290.925 351.363 290.559Z"
        fill="black" />
    <path
        d="M346.661 272.355C344.782 273.192 343.97 275.323 344.846 277.117C345.462 278.374 345.977 279.688 346.377 281.019C346.85 282.59 348.352 283.614 349.984 283.614C350.327 283.614 350.675 283.569 351.021 283.474C353.014 282.929 354.166 280.944 353.594 279.042C353.085 277.35 352.432 275.684 351.651 274.087C350.774 272.294 348.542 271.519 346.661 272.355Z"
        fill="black" />
    <path
        d="M300.981 261.634C303.055 261.634 304.735 260.03 304.735 258.051C304.735 256.072 303.055 254.468 300.981 254.468H296.023C293.949 254.468 292.268 256.071 292.268 258.051C292.268 260.03 293.949 261.634 296.023 261.634H300.981Z"
        fill="black" />
    <path
        d="M284.116 315.383C284.11 315.383 284.105 315.383 284.099 315.383L279.14 315.405C277.067 315.414 275.394 317.025 275.403 319.004C275.412 320.977 277.091 322.571 279.157 322.571C279.163 322.571 279.168 322.571 279.174 322.571L284.133 322.549C286.206 322.54 287.879 320.928 287.87 318.95C287.861 316.977 286.182 315.383 284.116 315.383Z"
        fill="black" />
    <path
        d="M319.383 261.634C319.808 261.634 320.23 261.643 320.65 261.661C320.706 261.664 320.763 261.665 320.819 261.665C322.815 261.665 324.477 260.163 324.566 258.241C324.658 256.263 323.053 254.59 320.982 254.503C320.45 254.48 319.913 254.469 319.384 254.469H315.858C313.784 254.469 312.104 256.072 312.104 258.052C312.104 260.031 313.784 261.635 315.858 261.635L319.383 261.634Z"
        fill="black" />
    <path
        d="M303.95 315.298C303.944 315.298 303.938 315.298 303.932 315.298L298.973 315.319C296.9 315.328 295.227 316.94 295.236 318.919C295.245 320.892 296.924 322.485 298.99 322.485C298.996 322.485 299.001 322.485 299.007 322.485L303.966 322.464C306.039 322.455 307.712 320.843 307.703 318.865C307.694 316.891 306.015 315.298 303.95 315.298Z"
        fill="black" />
</svg>