<svg width="58" height="56" viewBox="0 0 58 56" fill="none" xmlns="http://www.w3.org/2000/svg">
    <path
        d="M29 0C23.2643 0 17.6575 1.64217 12.8885 4.71885C8.11945 7.79553 4.40245 12.1685 2.20751 17.2849C0.0125652 22.4012 -0.561731 28.0311 0.55724 33.4625C1.67621 38.894 4.43819 43.8831 8.49391 47.799C12.5496 51.7149 17.7169 54.3816 23.3424 55.462C28.9678 56.5424 34.7988 55.9879 40.0978 53.8686C45.3969 51.7494 49.9261 48.1605 53.1126 43.556C56.2992 38.9514 58 33.5379 58 28C57.9853 20.5783 54.9252 13.4647 49.4898 8.21673C44.0545 2.96879 36.6868 0.0142315 29 0V0ZM42.8029 23.1L26.4625 38.1769C26.0401 38.5606 25.4809 38.7727 24.901 38.7692C24.6175 38.7731 24.336 38.7228 24.0728 38.6212C23.8096 38.5195 23.5698 38.3685 23.3673 38.1769L15.1971 30.6385C14.9705 30.4476 14.7862 30.2144 14.6553 29.953C14.5244 29.6916 14.4496 29.4073 14.4354 29.1173C14.4212 28.8272 14.4679 28.5374 14.5726 28.2652C14.6774 27.993 14.838 27.7441 15.045 27.5334C15.2519 27.3227 15.5008 27.1546 15.7768 27.0392C16.0527 26.9237 16.35 26.8634 16.6507 26.8617C16.9514 26.86 17.2494 26.917 17.5267 27.0294C17.8041 27.1417 18.055 27.307 18.2644 27.5154L24.901 33.6269L39.7356 19.9769C40.1693 19.6115 40.7326 19.4222 41.3076 19.4485C41.8825 19.4747 42.4247 19.7146 42.8208 20.1179C43.2169 20.5211 43.4362 21.0566 43.4329 21.6124C43.4295 22.1682 43.2038 22.7012 42.8029 23.1Z"
        fill="#438883" />
</svg>
    