<svg width="72" height="76" viewBox="0 0 72 76" fill="none" xmlns="http://www.w3.org/2000/svg">
    <ellipse cx="36" cy="37.9275" rx="36" ry="37.9275" fill="white" />
    <g clip-path="url(#clip0_4_1392)">
        <path
            d="M55.125 51.3602C55.125 51.7164 54.9907 52.0581 54.7516 52.31C54.5125 52.5619 54.1882 52.7034 53.85 52.7034H18.15C17.8118 52.7034 17.4875 52.5619 17.2484 52.31C17.0093 52.0581 16.875 51.7164 16.875 51.3602C16.875 51.0039 17.0093 50.6622 17.2484 50.4103C17.4875 50.1584 17.8118 50.0169 18.15 50.0169H53.85C54.1882 50.0169 54.5125 50.1584 54.7516 50.4103C54.9907 50.6622 55.125 51.0039 55.125 51.3602ZM18.1978 32.9238C18.1218 32.6423 18.1352 32.3424 18.2359 32.0696C18.3366 31.7968 18.5191 31.5661 18.7556 31.4127L35.3306 20.6665C35.5312 20.5339 35.7632 20.4635 36 20.4635C36.2368 20.4635 36.4688 20.5339 36.6694 20.6665L53.2444 31.4127C53.4799 31.5664 53.6614 31.7968 53.7616 32.069C53.8617 32.3412 53.8749 32.6403 53.7993 32.9212C53.7237 33.202 53.5632 33.4492 53.3423 33.6254C53.1214 33.8016 52.8521 33.8972 52.575 33.8977H48.75V44.6438H51.3C51.6382 44.6438 51.9625 44.7854 52.2016 45.0373C52.4407 45.2892 52.575 45.6308 52.575 45.9871C52.575 46.3434 52.4407 46.685 52.2016 46.9369C51.9625 47.1888 51.6382 47.3304 51.3 47.3304H20.7C20.3618 47.3304 20.0375 47.1888 19.7984 46.9369C19.5593 46.685 19.425 46.3434 19.425 45.9871C19.425 45.6308 19.5593 45.2892 19.7984 45.0373C20.0375 44.7854 20.3618 44.6438 20.7 44.6438H23.25V33.8977H19.425C19.1478 33.898 18.878 33.8031 18.6565 33.6274C18.4351 33.4516 18.2741 33.2047 18.1978 32.9238V32.9238ZM38.55 43.3006C38.55 43.6568 38.6843 43.9985 38.9234 44.2504C39.1625 44.5023 39.4868 44.6438 39.825 44.6438C40.1632 44.6438 40.4875 44.5023 40.7266 44.2504C40.9657 43.9985 41.1 43.6568 41.1 43.3006V35.241C41.1 34.8847 40.9657 34.5431 40.7266 34.2911C40.4875 34.0392 40.1632 33.8977 39.825 33.8977C39.4868 33.8977 39.1625 34.0392 38.9234 34.2911C38.6843 34.5431 38.55 34.8847 38.55 35.241V43.3006ZM30.9 43.3006C30.9 43.6568 31.0343 43.9985 31.2734 44.2504C31.5125 44.5023 31.8368 44.6438 32.175 44.6438C32.5132 44.6438 32.8375 44.5023 33.0766 44.2504C33.3157 43.9985 33.45 43.6568 33.45 43.3006V35.241C33.45 34.8847 33.3157 34.5431 33.0766 34.2911C32.8375 34.0392 32.5132 33.8977 32.175 33.8977C31.8368 33.8977 31.5125 34.0392 31.2734 34.2911C31.0343 34.5431 30.9 34.8847 30.9 35.241V43.3006Z"
            fill="#438883" />
    </g>
    <defs>
        <clipPath id="clip0_4_1392">
            <rect width="40.8" height="42.9845" fill="white" transform="translate(15.6001 16.4353)" />
        </clipPath>
    </defs>
</svg>
    