<svg width="263" height="265" viewBox="0 0 263 265" fill="none" xmlns="http://www.w3.org/2000/svg">
    <path
        d="M7.26685 52.014L132.802 10.9653L258.081 52.0139C259.522 123.926 243.34 159.768 190.661 217.757L160.594 236.67L131.468 252.182C-9.052 185.861 29.046 152.577 7.26685 52.014Z"
        fill="#2D62C5" />
    <path
        d="M86.2404 86.3578V117.768H79.9404V104.403H66.4854V117.768H60.1854V86.3578H66.4854V99.2728H79.9404V86.3578H86.2404ZM98.7413 91.4428V99.3178H109.316V104.313H98.7413V112.638H110.666V117.768H92.4413V86.3128H110.666V91.4428H98.7413ZM135.651 111.783H123.141L121.071 117.768H114.456L125.751 86.3128H133.087L144.382 117.768H137.722L135.651 111.783ZM133.941 106.743L129.396 93.6028L124.851 106.743H133.941ZM154.903 112.773H165.253V117.768H148.603V86.3578H154.903V112.773ZM190.633 86.3578V91.4428H182.263V117.768H175.963V91.4428H167.593V86.3578H190.633ZM221.284 86.3578V117.768H214.984V104.403H201.529V117.768H195.229V86.3578H201.529V99.2728H214.984V86.3578H221.284Z"
        fill="white" />
    <path fill-rule="evenodd" clip-rule="evenodd"
        d="M134.94 154.328V169.884C134.94 170.473 134.706 171.038 134.289 171.455C133.872 171.872 133.307 172.106 132.718 172.106C132.128 172.106 131.563 171.872 131.146 171.455C130.73 171.038 130.495 170.473 130.495 169.884V154.328H114.94C114.351 154.328 113.785 154.094 113.369 153.677C112.952 153.26 112.718 152.695 112.718 152.106C112.718 151.516 112.952 150.951 113.369 150.534C113.785 150.118 114.351 149.884 114.94 149.884H130.495V134.328C130.495 133.739 130.73 133.173 131.146 132.757C131.563 132.34 132.128 132.106 132.718 132.106C133.307 132.106 133.872 132.34 134.289 132.757C134.706 133.173 134.94 133.739 134.94 134.328V149.884H150.495C151.085 149.884 151.65 150.118 152.067 150.534C152.484 150.951 152.718 151.516 152.718 152.106C152.718 152.695 152.484 153.26 152.067 153.677C151.65 154.094 151.085 154.328 150.495 154.328H134.94Z"
        fill="white" />
    <path
        d="M7.18499 46.9666C2.56142 158.141 38.005 210.88 132.089 257.245C233.497 196.169 261.994 148.604 256.04 47.2893"
        stroke="white" stroke-width="12" stroke-linecap="round" />
    <path
        d="M7.27724 46.9361C66.0375 39.9436 92.1728 31.3387 132.325 7.24524C176.866 33.4255 203.744 42.6754 255.99 46.9361"
        stroke="white" stroke-width="12" stroke-linecap="round" />
</svg>