<svg width="738" height="259" viewBox="0 0 738 259" fill="none" xmlns="http://www.w3.org/2000/svg">
    <path
        d="M519.704 99.2622H513.704V105.262H511.704V99.2622H505.704V97.2622H511.704V91.2622H513.704V97.2622H519.704V99.2622Z"
        fill="#002B9A" fill-opacity="0.5" />
    <path
        d="M150.471 150.494H144.471V156.494H142.471V150.494H136.471V148.494H142.471V142.494H144.471V148.494H150.471V150.494Z"
        fill="#002B9A" fill-opacity="0.5" />
    <path fill-rule="evenodd" clip-rule="evenodd"
        d="M213.963 117.634C211.02 115.236 207.001 111.273 207.001 107.524C207.001 101.614 212.501 98.927 217.001 103.764C221.501 98.927 227.001 101.613 227.001 107.524C227.001 111.272 222.981 115.235 220.039 117.634C218.707 118.722 218.041 119.264 217.001 119.264C215.961 119.264 215.295 118.721 213.963 117.634ZM215.094 109.01C215.184 108.882 215.258 108.776 215.324 108.685C215.38 108.783 215.443 108.896 215.518 109.033L217.228 112.143C217.394 112.445 217.558 112.741 217.721 112.956C217.896 113.186 218.203 113.501 218.696 113.511C219.189 113.52 219.509 113.216 219.692 112.993C219.864 112.784 220.037 112.495 220.215 112.199L220.27 112.106C220.491 111.739 220.63 111.508 220.753 111.342C220.866 111.189 220.932 111.139 220.981 111.112C221.03 111.084 221.106 111.053 221.296 111.035C221.502 111.015 221.77 111.015 222.2 111.015H223.001C223.2 111.015 223.39 110.936 223.531 110.795C223.672 110.655 223.751 110.464 223.751 110.265C223.751 110.066 223.672 109.875 223.531 109.735C223.39 109.594 223.2 109.515 223.001 109.515H222.167C221.78 109.515 221.437 109.515 221.151 109.542C220.832 109.564 220.522 109.654 220.241 109.806C219.966 109.968 219.729 110.188 219.547 110.45C219.376 110.681 219.2 110.975 219.001 111.307L218.953 111.387C218.866 111.531 218.794 111.651 218.729 111.755L218.519 111.378L216.81 108.27C216.656 107.99 216.503 107.71 216.347 107.505C216.177 107.282 215.885 106.985 215.417 106.961C214.95 106.935 214.628 107.198 214.435 107.402C214.258 107.589 214.075 107.85 213.892 108.112L213.582 108.554C213.355 108.879 213.212 109.081 213.089 109.227C212.976 109.361 212.913 109.405 212.866 109.429C212.82 109.454 212.748 109.48 212.573 109.496C212.383 109.513 212.135 109.514 211.739 109.514H211.001C210.802 109.514 210.611 109.593 210.47 109.734C210.33 109.874 210.251 110.065 210.251 110.264C210.251 110.463 210.33 110.654 210.47 110.794C210.611 110.935 210.802 111.014 211.001 111.014H211.769C212.126 111.014 212.443 111.014 212.709 110.99C212.999 110.963 213.28 110.905 213.559 110.76C213.839 110.614 214.048 110.417 214.235 110.195C214.408 109.991 214.589 109.732 214.794 109.439L215.094 109.01Z"
        fill="#103DA4" fill-opacity="0.5" />
    <path fill-rule="evenodd" clip-rule="evenodd"
        d="M429.848 147.866C426.905 145.468 422.886 141.505 422.886 137.756C422.886 131.846 428.386 129.159 432.886 133.996C437.386 129.159 442.886 131.845 442.886 137.756C442.886 141.504 438.866 145.467 435.924 147.866C434.592 148.954 433.926 149.496 432.886 149.496C431.846 149.496 431.18 148.953 429.848 147.866ZM430.979 139.242C431.069 139.114 431.143 139.008 431.209 138.917C431.265 139.015 431.328 139.128 431.403 139.265L433.113 142.375C433.279 142.677 433.443 142.973 433.606 143.188C433.781 143.418 434.088 143.733 434.581 143.743C435.074 143.752 435.394 143.448 435.577 143.225C435.749 143.016 435.922 142.727 436.1 142.431L436.155 142.338C436.376 141.971 436.515 141.74 436.638 141.574C436.751 141.421 436.817 141.371 436.866 141.344C436.915 141.316 436.991 141.285 437.181 141.267C437.387 141.247 437.655 141.247 438.085 141.247H438.886C439.085 141.247 439.276 141.168 439.417 141.027C439.557 140.887 439.636 140.696 439.636 140.497C439.636 140.298 439.557 140.107 439.417 139.967C439.276 139.826 439.085 139.747 438.886 139.747H438.052C437.665 139.747 437.322 139.747 437.036 139.774C436.718 139.796 436.407 139.886 436.126 140.038C435.852 140.2 435.615 140.42 435.432 140.682C435.261 140.913 435.085 141.207 434.886 141.539L434.838 141.619C434.751 141.763 434.679 141.883 434.614 141.987L434.404 141.61L432.695 138.502C432.541 138.222 432.388 137.942 432.232 137.737C432.062 137.514 431.77 137.217 431.302 137.193C430.835 137.167 430.513 137.43 430.32 137.634C430.143 137.821 429.96 138.082 429.777 138.344L429.467 138.786C429.24 139.111 429.097 139.313 428.974 139.459C428.861 139.593 428.798 139.637 428.751 139.661C428.705 139.686 428.633 139.712 428.458 139.728C428.268 139.745 428.02 139.746 427.624 139.746H426.886C426.688 139.746 426.497 139.825 426.356 139.966C426.215 140.106 426.136 140.297 426.136 140.496C426.136 140.695 426.215 140.886 426.356 141.026C426.497 141.167 426.688 141.246 426.886 141.246H427.654C428.011 141.246 428.328 141.246 428.594 141.222C428.884 141.195 429.165 141.137 429.444 140.992C429.724 140.846 429.933 140.649 430.12 140.427C430.293 140.223 430.474 139.964 430.679 139.671L430.979 139.242Z"
        fill="#103DA4" fill-opacity="0.5" />
    <path
        d="M121.786 101.997C120.6 102.001 119.339 102.573 118.388 103.918L112.538 112.211C110.967 114.433 111.652 116.758 113.199 117.854C114.75 118.956 117.164 118.829 118.735 116.608L124.58 108.32C126.15 106.093 125.466 103.773 123.919 102.672C123.338 102.259 122.639 102.02 121.903 101.997H121.786ZM121.702 102.808C121.763 102.808 121.824 102.808 121.88 102.812C122.447 102.836 122.982 103.037 123.432 103.361C124.636 104.214 125.241 105.915 123.886 107.833L120.863 112.122C119.185 111.672 117.028 110.139 116.049 108.7L119.082 104.406C119.874 103.286 120.816 102.826 121.702 102.808Z"
        fill="#103DA4" fill-opacity="0.5" />
    <g clip-path="url(#clip0_0_1)">
        <path
            d="M214.835 179.249L213.336 180.748L211.595 179.006L213.043 177.558L211.976 176.49L206.211 182.255L207.278 183.322L208.726 181.874L210.468 183.616L208.969 185.115L221.929 198.075L227.328 198.199L229.617 200.488L230.671 200.374L227.913 197.616L227.789 192.217L214.835 179.249ZM214.835 180.957L221.419 187.541L217.271 191.689L215.595 190.015L217.675 187.935L216.795 187.055L214.715 189.135L213.165 187.585L215.245 185.505L214.365 184.625L212.285 186.705L210.691 185.111L214.835 180.957Z"
            fill="#002B9A" fill-opacity="0.5" />
    </g>
    <g clip-path="url(#clip1_0_1)">
        <path
            d="M679.823 65.9583L678.324 67.4573L676.583 65.7153L678.031 64.2673L676.964 63.1993L671.199 68.9643L672.266 70.0313L673.714 68.5833L675.456 70.3253L673.957 71.8243L686.917 84.7843L692.316 84.9083L694.605 87.1973L695.659 87.0833L692.901 84.3253L692.777 78.9263L679.823 65.9583ZM679.823 67.6663L686.407 74.2503L682.259 78.3983L680.583 76.7243L682.663 74.6443L681.783 73.7643L679.703 75.8443L678.153 74.2943L680.233 72.2143L679.353 71.3343L677.273 73.4143L675.679 71.8203L679.823 67.6663Z"
            fill="#002B9A" fill-opacity="0.5" />
    </g>
    <path
        d="M46.4819 140.496L44.4819 142.496V144.496H41.4819C40.3319 144.496 39.6019 145.496 39.4819 146.496L38.4819 156.496C38.3619 157.496 39.0219 158.496 40.4819 158.496H56.4819C57.9419 158.496 58.6019 157.496 58.4819 156.496L57.4819 146.496C57.3619 145.496 56.5419 144.496 55.4819 144.496H52.4819V142.496L50.4819 140.496H46.4819ZM46.4819 142.496H50.4819V144.496H46.4819V142.496ZM47.4819 147.496H49.4819V150.496H52.4819V152.496H49.4819V155.496H47.4819V152.496H44.4819V150.496H47.4819V147.496Z"
        fill="#103DA4" fill-opacity="0.5" />
    <path
        d="M404.382 47.2695L381.428 35.9691C380.891 35.7026 380.288 35.5628 379.675 35.5628C379.062 35.5628 378.459 35.7026 377.922 35.9691L354.968 47.2695C354.394 47.5521 353.915 47.9683 353.581 48.4746C353.246 48.9809 353.07 49.5586 353.069 50.1473V72.5792C353.07 73.1679 353.246 73.7457 353.581 74.252C353.915 74.7583 354.394 75.1745 354.968 75.4571L377.922 86.7575C378.459 87.0236 379.062 87.1631 379.675 87.1631C380.288 87.1631 380.891 87.0236 381.428 86.7575L404.382 75.4571C404.956 75.1745 405.436 74.7583 405.77 74.252C406.104 73.7457 406.28 73.1679 406.281 72.5792V50.1473C406.28 49.5586 406.104 48.9809 405.77 48.4746C405.436 47.9683 404.956 47.5521 404.382 47.2695ZM403.151 72.5792C403.152 72.6623 403.128 72.744 403.082 72.8162C403.036 72.8883 402.97 72.9482 402.89 72.9897L379.936 84.2901C379.859 84.3278 379.773 84.3476 379.686 84.3476C379.598 84.3476 379.512 84.3278 379.435 84.2901L356.46 72.9897C356.38 72.9482 356.314 72.8883 356.268 72.8162C356.222 72.744 356.199 72.6623 356.199 72.5792V50.1473C356.199 50.0643 356.222 49.9825 356.268 49.9104C356.314 49.8383 356.38 49.7784 356.46 49.7369L379.414 38.4365C379.491 38.3987 379.577 38.3789 379.665 38.3789C379.752 38.3789 379.838 38.3987 379.915 38.4365L402.869 49.7369C402.949 49.7784 403.015 49.8383 403.061 49.9104C403.107 49.9825 403.131 50.0643 403.13 50.1473L403.151 72.5792Z"
        fill="white" fill-opacity="0.5" />
    <path
        d="M457.594 47.2695L434.64 35.9691C434.103 35.7026 433.5 35.5628 432.887 35.5628C432.274 35.5628 431.67 35.7026 431.134 35.9691L408.18 47.2695C407.605 47.5521 407.126 47.9683 406.792 48.4746C406.458 48.9809 406.281 49.5586 406.281 50.1473V72.5792C406.281 73.1679 406.458 73.7457 406.792 74.252C407.126 74.7583 407.605 75.1745 408.18 75.4571L431.134 86.7575C431.671 87.0236 432.274 87.1631 432.887 87.1631C433.5 87.1631 434.103 87.0236 434.64 86.7575L457.594 75.4571C458.168 75.1745 458.647 74.7583 458.981 74.252C459.315 73.7457 459.492 73.1679 459.492 72.5792V50.1473C459.492 49.5586 459.315 48.9809 458.981 48.4746C458.647 47.9683 458.168 47.5521 457.594 47.2695ZM456.362 72.5792C456.363 72.6623 456.339 72.744 456.294 72.8162C456.248 72.8883 456.182 72.9482 456.102 72.9897L433.148 84.2901C433.071 84.3278 432.985 84.3476 432.897 84.3476C432.81 84.3476 432.723 84.3278 432.647 84.2901L409.672 72.9897C409.592 72.9482 409.526 72.8883 409.48 72.8162C409.434 72.744 409.41 72.6623 409.411 72.5792V50.1473C409.41 50.0643 409.434 49.9825 409.48 49.9104C409.526 49.8383 409.592 49.7784 409.672 49.7369L432.626 38.4365C432.703 38.3987 432.789 38.3789 432.876 38.3789C432.964 38.3789 433.05 38.3987 433.127 38.4365L456.081 49.7369C456.161 49.7784 456.227 49.8383 456.273 49.9104C456.319 49.9825 456.342 50.0643 456.341 50.1473L456.362 72.5792Z"
        fill="white" fill-opacity="0.5" />
    <path
        d="M430.988 86.9071L408.034 75.6067C407.497 75.3402 406.894 75.2004 406.281 75.2004C405.668 75.2004 405.065 75.3402 404.528 75.6067L381.574 86.9071C380.999 87.1897 380.52 87.6059 380.186 88.1122C379.852 88.6185 379.675 89.1962 379.675 89.7849V112.217C379.675 112.806 379.852 113.383 380.186 113.89C380.52 114.396 380.999 114.812 381.574 115.095L404.528 126.395C405.065 126.661 405.668 126.801 406.281 126.801C406.894 126.801 407.497 126.661 408.034 126.395L430.988 115.095C431.562 114.812 432.041 114.396 432.375 113.89C432.709 113.383 432.886 112.806 432.886 112.217V89.7849C432.886 89.1962 432.709 88.6185 432.375 88.1122C432.041 87.6059 431.562 87.1897 430.988 86.9071ZM429.756 112.217C429.757 112.3 429.733 112.382 429.688 112.454C429.642 112.526 429.576 112.586 429.496 112.627L406.542 123.928C406.465 123.965 406.379 123.985 406.291 123.985C406.204 123.985 406.117 123.965 406.041 123.928L383.066 112.627C382.986 112.586 382.92 112.526 382.874 112.454C382.828 112.382 382.804 112.3 382.805 112.217V89.7849C382.804 89.7019 382.828 89.6201 382.874 89.548C382.92 89.4759 382.986 89.416 383.066 89.3745L406.02 78.0741C406.097 78.0363 406.183 78.0165 406.27 78.0165C406.358 78.0165 406.444 78.0363 406.521 78.0741L429.475 89.3745C429.555 89.416 429.621 89.4759 429.667 89.548C429.713 89.6201 429.736 89.7019 429.735 89.7849L429.756 112.217Z"
        fill="white" fill-opacity="0.5" />
    <path
        d="M457.594 124.67L434.64 113.37C434.103 113.103 433.5 112.963 432.887 112.963C432.274 112.963 431.67 113.103 431.134 113.37L408.18 124.67C407.605 124.953 407.126 125.369 406.792 125.875C406.458 126.381 406.281 126.959 406.281 127.548V149.98C406.281 150.568 406.458 151.146 406.792 151.652C407.126 152.159 407.605 152.575 408.18 152.858L431.134 164.158C431.671 164.424 432.274 164.564 432.887 164.564C433.5 164.564 434.103 164.424 434.64 164.158L457.594 152.858C458.168 152.575 458.647 152.159 458.981 151.652C459.315 151.146 459.492 150.568 459.492 149.98V127.548C459.492 126.959 459.315 126.381 458.981 125.875C458.647 125.369 458.168 124.953 457.594 124.67ZM456.362 149.98C456.363 150.063 456.339 150.145 456.294 150.217C456.248 150.289 456.182 150.349 456.102 150.39L433.148 161.691C433.071 161.728 432.985 161.748 432.897 161.748C432.81 161.748 432.723 161.728 432.647 161.691L409.672 150.39C409.592 150.349 409.526 150.289 409.48 150.217C409.434 150.145 409.41 150.063 409.411 149.98V127.548C409.41 127.465 409.434 127.383 409.48 127.311C409.526 127.239 409.592 127.179 409.672 127.137L432.626 115.837C432.703 115.799 432.789 115.779 432.876 115.779C432.964 115.779 433.05 115.799 433.127 115.837L456.081 127.137C456.161 127.179 456.227 127.239 456.273 127.311C456.319 127.383 456.342 127.465 456.341 127.548L456.362 149.98Z"
        fill="white" fill-opacity="0.5" />
    <path
        d="M510.805 123.996L487.851 112.695C487.314 112.429 486.711 112.289 486.098 112.289C485.485 112.289 484.882 112.429 484.345 112.695L461.391 123.996C460.817 124.278 460.337 124.695 460.003 125.201C459.669 125.707 459.493 126.285 459.492 126.874V149.305C459.493 149.894 459.669 150.472 460.003 150.978C460.337 151.485 460.817 151.901 461.391 152.183L484.345 163.484C484.882 163.75 485.485 163.889 486.098 163.889C486.711 163.889 487.314 163.75 487.851 163.484L510.805 152.183C511.379 151.901 511.858 151.485 512.192 150.978C512.526 150.472 512.703 149.894 512.704 149.305V126.874C512.703 126.285 512.526 125.707 512.192 125.201C511.858 124.695 511.379 124.278 510.805 123.996ZM509.573 149.305C509.574 149.389 509.551 149.47 509.505 149.542C509.459 149.615 509.393 149.674 509.313 149.716L486.359 161.016C486.282 161.054 486.196 161.074 486.108 161.074C486.021 161.074 485.935 161.054 485.858 161.016L462.883 149.716C462.803 149.674 462.737 149.615 462.691 149.542C462.645 149.47 462.621 149.389 462.622 149.305V126.874C462.621 126.791 462.645 126.709 462.691 126.637C462.737 126.565 462.803 126.505 462.883 126.463L485.837 115.163C485.914 115.125 486 115.105 486.087 115.105C486.175 115.105 486.261 115.125 486.338 115.163L509.292 126.463C509.372 126.505 509.438 126.565 509.484 126.637C509.53 126.709 509.553 126.791 509.553 126.874L509.573 149.305Z"
        fill="white" fill-opacity="0.5" />
    <path
        d="M537.411 84.8042L514.457 73.5038C513.92 73.2373 513.317 73.0975 512.704 73.0975C512.091 73.0975 511.488 73.2373 510.951 73.5038L487.997 84.8042C487.423 85.0868 486.943 85.503 486.609 86.0093C486.275 86.5156 486.099 87.0934 486.098 87.6821V110.114C486.099 110.703 486.275 111.28 486.609 111.787C486.943 112.293 487.423 112.709 487.997 112.992L510.951 124.292C511.488 124.558 512.091 124.698 512.704 124.698C513.317 124.698 513.92 124.558 514.457 124.292L537.411 112.992C537.985 112.709 538.464 112.293 538.798 111.787C539.132 111.28 539.309 110.703 539.31 110.114V87.6821C539.309 87.0934 539.132 86.5156 538.798 86.0093C538.464 85.503 537.985 85.0868 537.411 84.8042ZM536.179 110.114C536.18 110.197 536.157 110.279 536.111 110.351C536.065 110.423 535.999 110.483 535.919 110.524L512.965 121.825C512.888 121.863 512.802 121.882 512.714 121.882C512.627 121.882 512.541 121.863 512.464 121.825L489.489 110.524C489.409 110.483 489.343 110.423 489.297 110.351C489.251 110.279 489.227 110.197 489.228 110.114V87.6821C489.227 87.599 489.251 87.5173 489.297 87.4452C489.343 87.3731 489.409 87.3132 489.489 87.2716L512.443 75.9713C512.52 75.9335 512.606 75.9137 512.693 75.9137C512.781 75.9137 512.867 75.9335 512.944 75.9713L535.898 87.2716C535.978 87.3132 536.044 87.3731 536.09 87.4452C536.136 87.5173 536.159 87.599 536.159 87.6821L536.179 110.114Z"
        fill="white" fill-opacity="0.5" />
    <path
        d="M684.145 12.9593L661.721 0.449791C661.197 0.154753 660.608 0 660.009 0C659.41 0 658.821 0.154753 658.296 0.449791L635.873 12.9593C635.312 13.2721 634.843 13.7329 634.517 14.2934C634.191 14.8539 634.018 15.4934 634.018 16.1451V40.9773C634.018 41.629 634.191 42.2685 634.517 42.829C634.843 43.3895 635.312 43.8502 635.873 44.1631L658.296 56.6726C658.821 56.9672 659.41 57.1217 660.009 57.1217C660.608 57.1217 661.197 56.9672 661.721 56.6726L684.145 44.1631C684.706 43.8502 685.174 43.3895 685.5 42.829C685.827 42.2685 685.999 41.629 686 40.9773V16.1451C685.999 15.4934 685.827 14.8539 685.5 14.2934C685.174 13.7329 684.706 13.2721 684.145 12.9593ZM682.942 40.9773C682.943 41.0692 682.92 41.1597 682.875 41.2395C682.83 41.3194 682.765 41.3857 682.687 41.4316L660.264 53.9412C660.188 53.983 660.104 54.0049 660.019 54.0049C659.933 54.0049 659.849 53.983 659.774 53.9412L637.33 41.4316C637.252 41.3857 637.187 41.3194 637.142 41.2395C637.098 41.1597 637.075 41.0692 637.075 40.9773V16.1451C637.075 16.0532 637.098 15.9627 637.142 15.8828C637.187 15.803 637.252 15.7367 637.33 15.6908L659.754 3.18122C659.829 3.13941 659.913 3.11749 659.998 3.11749C660.084 3.11749 660.168 3.13941 660.243 3.18122L682.667 15.6908C682.745 15.7367 682.81 15.803 682.855 15.8828C682.899 15.9627 682.922 16.0532 682.922 16.1451L682.942 40.9773Z"
        fill="white" fill-opacity="0.5" />
    <path
        d="M736.127 12.9593L713.703 0.449791C713.179 0.154753 712.59 0 711.991 0C711.392 0 710.803 0.154753 710.279 0.449791L687.855 12.9593C687.294 13.2721 686.826 13.7329 686.499 14.2934C686.173 14.8539 686.001 15.4934 686 16.1451V40.9773C686.001 41.629 686.173 42.2685 686.499 42.829C686.826 43.3895 687.294 43.8502 687.855 44.1631L710.279 56.6726C710.803 56.9672 711.392 57.1217 711.991 57.1217C712.59 57.1217 713.179 56.9672 713.703 56.6726L736.127 44.1631C736.688 43.8502 737.156 43.3895 737.483 42.829C737.809 42.2685 737.982 41.629 737.982 40.9773V16.1451C737.982 15.4934 737.809 14.8539 737.483 14.2934C737.156 13.7329 736.688 13.2721 736.127 12.9593ZM734.924 40.9773C734.925 41.0692 734.902 41.1597 734.857 41.2395C734.813 41.3194 734.748 41.3857 734.67 41.4316L712.246 53.9412C712.171 53.983 712.087 54.0049 712.001 54.0049C711.916 54.0049 711.832 53.983 711.757 53.9412L689.313 41.4316C689.234 41.3857 689.17 41.3194 689.125 41.2395C689.08 41.1597 689.057 41.0692 689.058 40.9773V16.1451C689.057 16.0532 689.08 15.9627 689.125 15.8828C689.17 15.803 689.234 15.7367 689.313 15.6908L711.736 3.18122C711.811 3.13941 711.895 3.11749 711.981 3.11749C712.066 3.11749 712.151 3.13941 712.226 3.18122L734.649 15.6908C734.727 15.7367 734.792 15.803 734.837 15.8828C734.882 15.9627 734.905 16.0532 734.904 16.1451L734.924 40.9773Z"
        fill="white" fill-opacity="0.5" />
    <path
        d="M710.136 56.8382L687.712 44.3287C687.188 44.0336 686.599 43.8789 686 43.8789C685.401 43.8789 684.812 44.0336 684.288 44.3287L661.864 56.8382C661.303 57.151 660.835 57.6118 660.508 58.1723C660.182 58.7327 660.009 59.3723 660.009 60.024V84.8561C660.009 85.5078 660.182 86.1474 660.508 86.7079C660.835 87.2684 661.303 87.7291 661.864 88.0419L684.288 100.551C684.812 100.846 685.401 101.001 686 101.001C686.599 101.001 687.188 100.846 687.712 100.551L710.136 88.0419C710.697 87.7291 711.165 87.2684 711.492 86.7079C711.818 86.1474 711.99 85.5078 711.991 84.8561V60.024C711.99 59.3723 711.818 58.7327 711.492 58.1723C711.165 57.6118 710.697 57.151 710.136 56.8382ZM708.933 84.8561C708.934 84.9481 708.911 85.0386 708.866 85.1184C708.821 85.1983 708.757 85.2645 708.678 85.3105L686.255 97.82C686.18 97.8619 686.096 97.8838 686.01 97.8838C685.925 97.8838 685.84 97.8619 685.765 97.82L663.321 85.3105C663.243 85.2645 663.178 85.1983 663.134 85.1184C663.089 85.0386 663.066 84.9481 663.067 84.8561V60.024C663.066 59.9321 663.089 59.8416 663.134 59.7617C663.178 59.6819 663.243 59.6156 663.321 59.5696L685.745 47.0601C685.82 47.0183 685.904 46.9964 685.99 46.9964C686.075 46.9964 686.159 47.0183 686.234 47.0601L708.658 59.5696C708.736 59.6156 708.801 59.6819 708.846 59.7617C708.89 59.8416 708.914 59.9321 708.913 60.024L708.933 84.8561Z"
        fill="white" fill-opacity="0.5" />
    <path
        d="M46.7635 97.8386L25.8445 86.0986C25.3554 85.8217 24.8058 85.6765 24.247 85.6765C23.6883 85.6765 23.1387 85.8217 22.6496 86.0986L1.73057 97.8386C1.20713 98.1322 0.77032 98.5646 0.465862 99.0906C0.161404 99.6166 0.000501267 100.217 0 100.828V124.133C0.000501267 124.745 0.161404 125.345 0.465862 125.871C0.77032 126.397 1.20713 126.829 1.73057 127.123L22.6496 138.863C23.1388 139.139 23.6884 139.284 24.247 139.284C24.8057 139.284 25.3552 139.139 25.8445 138.863L46.7635 127.123C47.2869 126.829 47.7238 126.397 48.0282 125.871C48.3327 125.345 48.4936 124.745 48.4941 124.133V100.828C48.4936 100.217 48.3327 99.6166 48.0282 99.0906C47.7238 98.5646 47.2869 98.1322 46.7635 97.8386ZM45.6415 124.133C45.6422 124.219 45.6206 124.304 45.5789 124.379C45.5371 124.454 45.4767 124.516 45.4038 124.559L24.4848 136.299C24.4148 136.339 24.3363 136.359 24.2565 136.359C24.1768 136.359 24.0983 136.339 24.0283 136.299L3.09031 124.559C3.0174 124.516 2.95698 124.454 2.91522 124.379C2.87345 124.304 2.85184 124.219 2.85259 124.133V100.828C2.85184 100.742 2.87345 100.657 2.91522 100.582C2.95698 100.507 3.0174 100.445 3.09031 100.402L24.0093 88.662C24.0793 88.6228 24.1578 88.6022 24.2375 88.6022C24.3173 88.6022 24.3958 88.6228 24.4657 88.662L45.3848 100.402C45.4577 100.445 45.5181 100.507 45.5598 100.582C45.6016 100.657 45.6232 100.742 45.6225 100.828L45.6415 124.133Z"
        fill="white" fill-opacity="0.5" />
    <path
        d="M216.492 136.834L195.573 125.094C195.084 124.817 194.534 124.671 193.975 124.671C193.417 124.671 192.867 124.817 192.378 125.094L171.459 136.834C170.936 137.127 170.499 137.56 170.194 138.085C169.89 138.611 169.729 139.212 169.728 139.823V163.128C169.729 163.739 169.89 164.34 170.194 164.866C170.499 165.392 170.936 165.824 171.459 166.118L192.378 177.858C192.867 178.134 193.417 178.279 193.975 178.279C194.534 178.279 195.084 178.134 195.573 177.858L216.492 166.118C217.015 165.824 217.452 165.392 217.757 164.866C218.061 164.34 218.222 163.739 218.222 163.128V139.823C218.222 139.212 218.061 138.611 217.757 138.085C217.452 137.56 217.015 137.127 216.492 136.834ZM215.37 163.128C215.371 163.214 215.349 163.299 215.307 163.374C215.265 163.449 215.205 163.511 215.132 163.554L194.213 175.294C194.143 175.333 194.065 175.354 193.985 175.354C193.905 175.354 193.827 175.333 193.757 175.294L172.819 163.554C172.746 163.511 172.685 163.449 172.644 163.374C172.602 163.299 172.58 163.214 172.581 163.128V139.823C172.58 139.737 172.602 139.652 172.644 139.577C172.685 139.502 172.746 139.44 172.819 139.397L193.738 127.657C193.808 127.618 193.886 127.597 193.966 127.597C194.046 127.597 194.124 127.618 194.194 127.657L215.113 139.397C215.186 139.44 215.246 139.502 215.288 139.577C215.33 139.652 215.352 139.737 215.351 139.823L215.37 163.128Z"
        fill="white" fill-opacity="0.5" />
    <path
        d="M240.739 97.8386L219.82 86.0986C219.331 85.8217 218.781 85.6765 218.223 85.6765C217.664 85.6765 217.114 85.8217 216.625 86.0986L195.706 97.8386C195.183 98.1322 194.746 98.5646 194.442 99.0906C194.137 99.6166 193.976 100.217 193.976 100.828V124.133C193.976 124.745 194.137 125.345 194.442 125.871C194.746 126.397 195.183 126.829 195.706 127.123L216.625 138.863C217.115 139.139 217.664 139.284 218.223 139.284C218.781 139.284 219.331 139.139 219.82 138.863L240.739 127.123C241.263 126.829 241.699 126.397 242.004 125.871C242.308 125.345 242.469 124.745 242.47 124.133V100.828C242.469 100.217 242.308 99.6166 242.004 99.0906C241.699 98.5646 241.263 98.1322 240.739 97.8386ZM239.617 124.133C239.618 124.219 239.596 124.304 239.555 124.379C239.513 124.454 239.452 124.516 239.379 124.559L218.46 136.299C218.39 136.339 218.312 136.359 218.232 136.359C218.152 136.359 218.074 136.339 218.004 136.299L197.066 124.559C196.993 124.516 196.933 124.454 196.891 124.379C196.849 124.304 196.828 124.219 196.828 124.133V100.828C196.828 100.742 196.849 100.657 196.891 100.582C196.933 100.507 196.993 100.445 197.066 100.402L217.985 88.662C218.055 88.6228 218.133 88.6022 218.213 88.6022C218.293 88.6022 218.371 88.6228 218.441 88.662L239.36 100.402C239.433 100.445 239.494 100.507 239.536 100.582C239.577 100.657 239.599 100.742 239.598 100.828L239.617 124.133Z"
        fill="white" fill-opacity="0.5" />
    <path
        d="M216.493 58.6067L195.574 46.8667C195.085 46.5898 194.535 46.4446 193.976 46.4446C193.418 46.4446 192.868 46.5898 192.379 46.8667L171.46 58.6067C170.937 58.9003 170.5 59.3327 170.195 59.8587C169.891 60.3847 169.73 60.9849 169.729 61.5965V84.901C169.73 85.5126 169.891 86.1128 170.195 86.6388C170.5 87.1648 170.937 87.5973 171.46 87.8908L192.379 99.6308C192.868 99.9073 193.418 100.052 193.976 100.052C194.535 100.052 195.085 99.9073 195.574 99.6308L216.493 87.8908C217.016 87.5973 217.453 87.1648 217.758 86.6388C218.062 86.1128 218.223 85.5126 218.224 84.901V61.5965C218.223 60.9849 218.062 60.3847 217.758 59.8587C217.453 59.3327 217.016 58.9003 216.493 58.6067ZM215.371 84.901C215.372 84.9873 215.35 85.0722 215.308 85.1472C215.267 85.2221 215.206 85.2843 215.133 85.3274L194.214 97.0674C194.144 97.1067 194.066 97.1272 193.986 97.1272C193.906 97.1272 193.828 97.1067 193.758 97.0674L172.82 85.3274C172.747 85.2843 172.686 85.2221 172.645 85.1472C172.603 85.0722 172.581 84.9873 172.582 84.901V61.5965C172.581 61.5102 172.603 61.4253 172.645 61.3504C172.686 61.2754 172.747 61.2132 172.82 61.1701L193.739 49.4301C193.809 49.3909 193.887 49.3703 193.967 49.3703C194.047 49.3703 194.125 49.3909 194.195 49.4301L215.114 61.1701C215.187 61.2132 215.248 61.2754 215.289 61.3504C215.331 61.4253 215.353 61.5102 215.352 61.5965L215.371 84.901Z"
        fill="white" fill-opacity="0.5" />
    <path
        d="M167.999 136.834L147.08 125.094C146.591 124.817 146.041 124.671 145.482 124.671C144.924 124.671 144.374 124.817 143.885 125.094L122.966 136.834C122.443 137.127 122.006 137.56 121.701 138.085C121.397 138.611 121.236 139.212 121.235 139.823V163.128C121.236 163.739 121.397 164.34 121.701 164.866C122.006 165.392 122.443 165.824 122.966 166.118L143.885 177.858C144.374 178.134 144.924 178.279 145.482 178.279C146.041 178.279 146.591 178.134 147.08 177.858L167.999 166.118C168.522 165.824 168.959 165.392 169.264 164.866C169.568 164.34 169.729 163.739 169.729 163.128V139.823C169.729 139.212 169.568 138.611 169.264 138.085C168.959 137.56 168.522 137.127 167.999 136.834ZM166.877 163.128C166.878 163.214 166.856 163.299 166.814 163.374C166.773 163.449 166.712 163.511 166.639 163.554L145.72 175.294C145.65 175.333 145.572 175.354 145.492 175.354C145.412 175.354 145.334 175.333 145.264 175.294L124.326 163.554C124.253 163.511 124.192 163.449 124.151 163.374C124.109 163.299 124.087 163.214 124.088 163.128V139.823C124.087 139.737 124.109 139.652 124.151 139.577C124.192 139.502 124.253 139.44 124.326 139.397L145.245 127.657C145.315 127.618 145.393 127.597 145.473 127.597C145.553 127.597 145.631 127.618 145.701 127.657L166.62 139.397C166.693 139.44 166.753 139.502 166.795 139.577C166.837 139.652 166.859 139.737 166.858 139.823L166.877 163.128Z"
        fill="white" fill-opacity="0.5" />
    <path
        d="M240.74 177.55L219.821 165.81C219.332 165.533 218.783 165.387 218.224 165.387C217.665 165.387 217.115 165.533 216.626 165.81L195.707 177.55C195.184 177.843 194.747 178.276 194.443 178.802C194.138 179.327 193.977 179.928 193.977 180.539V203.844C193.977 204.455 194.138 205.056 194.443 205.582C194.747 206.108 195.184 206.54 195.707 206.834L216.626 218.574C217.116 218.85 217.665 218.995 218.224 218.995C218.782 218.995 219.332 218.85 219.821 218.574L240.74 206.834C241.264 206.54 241.701 206.108 242.005 205.582C242.309 205.056 242.47 204.455 242.471 203.844V180.539C242.47 179.928 242.309 179.327 242.005 178.802C241.701 178.276 241.264 177.843 240.74 177.55ZM239.618 203.844C239.619 203.93 239.597 204.015 239.556 204.09C239.514 204.165 239.453 204.227 239.381 204.27L218.462 216.01C218.392 216.049 218.313 216.07 218.233 216.07C218.154 216.07 218.075 216.049 218.005 216.01L197.067 204.27C196.994 204.227 196.934 204.165 196.892 204.09C196.85 204.015 196.829 203.93 196.829 203.844V180.539C196.829 180.453 196.85 180.368 196.892 180.293C196.934 180.218 196.994 180.156 197.067 180.113L217.986 168.373C218.056 168.334 218.135 168.313 218.214 168.313C218.294 168.313 218.373 168.334 218.442 168.373L239.361 180.113C239.434 180.156 239.495 180.218 239.537 180.293C239.578 180.368 239.6 180.453 239.599 180.539L239.618 203.844Z"
        fill="white" fill-opacity="0.5" />
    <path
        d="M289.234 177.55L268.315 165.81C267.826 165.533 267.277 165.387 266.718 165.387C266.159 165.387 265.609 165.533 265.12 165.81L244.201 177.55C243.678 177.843 243.241 178.276 242.937 178.802C242.632 179.327 242.471 179.928 242.471 180.539V203.844C242.471 204.455 242.632 205.056 242.937 205.582C243.241 206.108 243.678 206.54 244.201 206.834L265.12 218.574C265.61 218.85 266.159 218.995 266.718 218.995C267.276 218.995 267.826 218.85 268.315 218.574L289.234 206.834C289.758 206.54 290.195 206.108 290.499 205.582C290.803 205.056 290.964 204.455 290.965 203.844V180.539C290.964 179.928 290.803 179.327 290.499 178.802C290.195 178.276 289.758 177.843 289.234 177.55ZM288.112 203.844C288.113 203.93 288.091 204.015 288.05 204.09C288.008 204.165 287.947 204.227 287.875 204.27L266.956 216.01C266.886 216.049 266.807 216.07 266.727 216.07C266.648 216.07 266.569 216.049 266.499 216.01L245.561 204.27C245.488 204.227 245.428 204.165 245.386 204.09C245.344 204.015 245.323 203.93 245.323 203.844V180.539C245.323 180.453 245.344 180.368 245.386 180.293C245.428 180.218 245.488 180.156 245.561 180.113L266.48 168.373C266.55 168.334 266.629 168.313 266.708 168.313C266.788 168.313 266.867 168.334 266.937 168.373L287.856 180.113C287.928 180.156 287.989 180.218 288.031 180.293C288.072 180.368 288.094 180.453 288.093 180.539L288.112 203.844Z"
        fill="white" fill-opacity="0.5" />
    <path
        d="M264.986 216.936L244.067 205.196C243.578 204.919 243.028 204.774 242.47 204.774C241.911 204.774 241.361 204.919 240.872 205.196L219.953 216.936C219.43 217.23 218.993 217.662 218.688 218.188C218.384 218.714 218.223 219.314 218.222 219.926V243.23C218.223 243.842 218.384 244.442 218.688 244.968C218.993 245.494 219.43 245.927 219.953 246.22L240.872 257.96C241.361 258.237 241.911 258.382 242.47 258.382C243.028 258.382 243.578 258.237 244.067 257.96L264.986 246.22C265.509 245.927 265.946 245.494 266.251 244.968C266.555 244.442 266.716 243.842 266.717 243.23V219.926C266.716 219.314 266.555 218.714 266.251 218.188C265.946 217.662 265.509 217.23 264.986 216.936ZM263.864 243.23C263.865 243.317 263.843 243.402 263.801 243.477C263.76 243.551 263.699 243.614 263.626 243.657L242.707 255.397C242.637 255.436 242.559 255.457 242.479 255.457C242.399 255.457 242.321 255.436 242.251 255.397L221.313 243.657C221.24 243.614 221.179 243.551 221.138 243.477C221.096 243.402 221.074 243.317 221.075 243.23V219.926C221.074 219.84 221.096 219.755 221.138 219.68C221.179 219.605 221.24 219.543 221.313 219.499L242.232 207.76C242.302 207.72 242.38 207.7 242.46 207.7C242.54 207.7 242.618 207.72 242.688 207.76L263.607 219.499C263.68 219.543 263.741 219.605 263.782 219.68C263.824 219.755 263.846 219.84 263.845 219.926L263.864 243.23Z"
        fill="white" fill-opacity="0.5" />
    <path
        d="M192.246 177.55L171.327 165.81C170.838 165.533 170.288 165.387 169.729 165.387C169.17 165.387 168.621 165.533 168.132 165.81L147.213 177.55C146.689 177.843 146.252 178.276 145.948 178.802C145.644 179.327 145.483 179.928 145.482 180.539V203.844C145.483 204.455 145.644 205.056 145.948 205.582C146.252 206.108 146.689 206.54 147.213 206.834L168.132 218.574C168.621 218.85 169.171 218.995 169.729 218.995C170.288 218.995 170.837 218.85 171.327 218.574L192.246 206.834C192.769 206.54 193.206 206.108 193.51 205.582C193.815 205.056 193.976 204.455 193.976 203.844V180.539C193.976 179.928 193.815 179.327 193.51 178.802C193.206 178.276 192.769 177.843 192.246 177.55ZM191.124 203.844C191.124 203.93 191.103 204.015 191.061 204.09C191.019 204.165 190.959 204.227 190.886 204.27L169.967 216.01C169.897 216.049 169.818 216.07 169.739 216.07C169.659 216.07 169.58 216.049 169.511 216.01L148.572 204.27C148.5 204.227 148.439 204.165 148.397 204.09C148.356 204.015 148.334 203.93 148.335 203.844V180.539C148.334 180.453 148.356 180.368 148.397 180.293C148.439 180.218 148.5 180.156 148.572 180.113L169.492 168.373C169.561 168.334 169.64 168.313 169.72 168.313C169.799 168.313 169.878 168.334 169.948 168.373L190.867 180.113C190.94 180.156 191 180.218 191.042 180.293C191.084 180.368 191.105 180.453 191.105 180.539L191.124 203.844Z"
        fill="white" fill-opacity="0.5" />
    <path
        d="M46.7635 177.55L25.8445 165.81C25.3554 165.533 24.8058 165.387 24.247 165.387C23.6883 165.387 23.1387 165.533 22.6496 165.81L1.73057 177.55C1.20713 177.843 0.77032 178.276 0.465862 178.802C0.161404 179.327 0.000501267 179.928 0 180.539V203.844C0.000501267 204.455 0.161404 205.056 0.465862 205.582C0.77032 206.108 1.20713 206.54 1.73057 206.834L22.6496 218.574C23.1388 218.85 23.6884 218.995 24.247 218.995C24.8057 218.995 25.3552 218.85 25.8445 218.574L46.7635 206.834C47.2869 206.54 47.7238 206.108 48.0282 205.582C48.3327 205.056 48.4936 204.455 48.4941 203.844V180.539C48.4936 179.928 48.3327 179.327 48.0282 178.802C47.7238 178.276 47.2869 177.843 46.7635 177.55ZM45.6415 203.844C45.6422 203.93 45.6206 204.015 45.5789 204.09C45.5371 204.165 45.4767 204.227 45.4038 204.27L24.4848 216.01C24.4148 216.049 24.3363 216.07 24.2565 216.07C24.1768 216.07 24.0983 216.049 24.0283 216.01L3.09031 204.27C3.0174 204.227 2.95698 204.165 2.91522 204.09C2.87345 204.015 2.85184 203.93 2.85259 203.844V180.539C2.85184 180.453 2.87345 180.368 2.91522 180.293C2.95698 180.218 3.0174 180.156 3.09031 180.113L24.0093 168.373C24.0793 168.334 24.1578 168.313 24.2375 168.313C24.3173 168.313 24.3958 168.334 24.4657 168.373L45.3848 180.113C45.4577 180.156 45.5181 180.218 45.5598 180.293C45.6016 180.368 45.6232 180.453 45.6225 180.539L45.6415 203.844Z"
        fill="white" fill-opacity="0.5" />
    <path
        d="M143.751 97.8386L122.832 86.0986C122.343 85.8217 121.793 85.6765 121.235 85.6765C120.676 85.6765 120.126 85.8217 119.637 86.0986L98.7182 97.8386C98.1947 98.1322 97.7579 98.5646 97.4535 99.0906C97.149 99.6166 96.9881 100.217 96.9876 100.828V124.133C96.9881 124.745 97.149 125.345 97.4535 125.871C97.7579 126.397 98.1947 126.829 98.7182 127.123L119.637 138.863C120.126 139.139 120.676 139.284 121.235 139.284C121.793 139.284 122.343 139.139 122.832 138.863L143.751 127.123C144.275 126.829 144.711 126.397 145.016 125.871C145.32 125.345 145.481 124.745 145.482 124.133V100.828C145.481 100.217 145.32 99.6166 145.016 99.0906C144.711 98.5646 144.275 98.1322 143.751 97.8386ZM142.629 124.133C142.63 124.219 142.608 124.304 142.566 124.379C142.525 124.454 142.464 124.516 142.391 124.559L121.472 136.299C121.402 136.339 121.324 136.359 121.244 136.359C121.164 136.359 121.086 136.339 121.016 136.299L100.078 124.559C100.005 124.516 99.9446 124.454 99.9028 124.379C99.8611 124.304 99.8394 124.219 99.8402 124.133V100.828C99.8394 100.742 99.8611 100.657 99.9028 100.582C99.9446 100.507 100.005 100.445 100.078 100.402L120.997 88.662C121.067 88.6228 121.145 88.6022 121.225 88.6022C121.305 88.6022 121.383 88.6228 121.453 88.662L142.372 100.402C142.445 100.445 142.506 100.507 142.547 100.582C142.589 100.657 142.611 100.742 142.61 100.828L142.629 124.133Z"
        fill="white" fill-opacity="0.5" />
    <path
        d="M119.504 136.834L98.5853 125.094C98.0962 124.817 97.5466 124.671 96.9879 124.671C96.4291 124.671 95.8795 124.817 95.3904 125.094L74.4714 136.834C73.948 137.127 73.5112 137.56 73.2067 138.085C72.9022 138.611 72.7413 139.212 72.7408 139.823V163.128C72.7413 163.739 72.9022 164.34 73.2067 164.866C73.5112 165.392 73.948 165.824 74.4714 166.118L95.3904 177.858C95.8797 178.134 96.4292 178.279 96.9879 178.279C97.5465 178.279 98.0961 178.134 98.5853 177.858L119.504 166.118C120.028 165.824 120.465 165.392 120.769 164.866C121.074 164.34 121.234 163.739 121.235 163.128V139.823C121.234 139.212 121.074 138.611 120.769 138.085C120.465 137.56 120.028 137.127 119.504 136.834ZM118.382 163.128C118.383 163.214 118.361 163.299 118.32 163.374C118.278 163.449 118.218 163.511 118.145 163.554L97.2256 175.294C97.1556 175.333 97.0772 175.354 96.9974 175.354C96.9176 175.354 96.8392 175.333 96.7692 175.294L75.8312 163.554C75.7582 163.511 75.6978 163.449 75.6561 163.374C75.6143 163.299 75.5927 163.214 75.5934 163.128V139.823C75.5927 139.737 75.6143 139.652 75.6561 139.577C75.6978 139.502 75.7582 139.44 75.8312 139.397L96.7502 127.657C96.8201 127.618 96.8986 127.597 96.9784 127.597C97.0581 127.597 97.1366 127.618 97.2066 127.657L118.126 139.397C118.199 139.44 118.259 139.502 118.301 139.577C118.342 139.652 118.364 139.737 118.363 139.823L118.382 163.128Z"
        fill="white" fill-opacity="0.5" />
    <path
        d="M119.505 58.6067L98.5858 46.8667C98.0967 46.5898 97.5471 46.4446 96.9884 46.4446C96.4296 46.4446 95.88 46.5898 95.3909 46.8667L74.4719 58.6067C73.9485 58.9003 73.5117 59.3327 73.2072 59.8587C72.9027 60.3847 72.7418 60.9849 72.7413 61.5965V84.901C72.7418 85.5126 72.9027 86.1128 73.2072 86.6388C73.5117 87.1648 73.9485 87.5973 74.4719 87.8908L95.3909 99.6308C95.8802 99.9073 96.4297 100.052 96.9884 100.052C97.547 100.052 98.0966 99.9073 98.5858 99.6308L119.505 87.8908C120.028 87.5973 120.465 87.1648 120.77 86.6388C121.074 86.1128 121.235 85.5126 121.235 84.901V61.5965C121.235 60.9849 121.074 60.3847 120.77 59.8587C120.465 59.3327 120.028 58.9003 119.505 58.6067ZM118.383 84.901C118.384 84.9873 118.362 85.0722 118.32 85.1472C118.278 85.2221 118.218 85.2843 118.145 85.3274L97.2261 97.0674C97.1561 97.1067 97.0776 97.1272 96.9979 97.1272C96.9181 97.1272 96.8396 97.1067 96.7697 97.0674L75.8316 85.3274C75.7587 85.2843 75.6983 85.2221 75.6565 85.1472C75.6148 85.0722 75.5932 84.9873 75.5939 84.901V61.5965C75.5932 61.5102 75.6148 61.4253 75.6565 61.3504C75.6983 61.2754 75.7587 61.2132 75.8316 61.1701L96.7507 49.4301C96.8206 49.3909 96.8991 49.3703 96.9789 49.3703C97.0586 49.3703 97.1371 49.3909 97.2071 49.4301L118.126 61.1701C118.199 61.2132 118.259 61.2754 118.301 61.3504C118.343 61.4253 118.365 61.5102 118.364 61.5965L118.383 84.901Z"
        fill="white" fill-opacity="0.5" />
    <path
        d="M71.0103 136.834L50.0913 125.094C49.6022 124.817 49.0525 124.671 48.4938 124.671C47.9351 124.671 47.3855 124.817 46.8964 125.094L25.9773 136.834C25.4539 137.127 25.0171 137.56 24.7126 138.085C24.4082 138.611 24.2473 139.212 24.2468 139.823V163.128C24.2473 163.739 24.4082 164.34 24.7126 164.866C25.0171 165.392 25.4539 165.824 25.9773 166.118L46.8964 177.858C47.3856 178.134 47.9352 178.279 48.4938 178.279C49.0525 178.279 49.602 178.134 50.0913 177.858L71.0103 166.118C71.5337 165.824 71.9705 165.392 72.275 164.866C72.5794 164.34 72.7403 163.739 72.7408 163.128V139.823C72.7403 139.212 72.5794 138.611 72.275 138.085C71.9705 137.56 71.5337 137.127 71.0103 136.834ZM69.8882 163.128C69.889 163.214 69.8674 163.299 69.8256 163.374C69.7839 163.449 69.7234 163.511 69.6505 163.554L48.7315 175.294C48.6615 175.333 48.5831 175.354 48.5033 175.354C48.4236 175.354 48.3451 175.333 48.2751 175.294L27.3371 163.554C27.2642 163.511 27.2037 163.449 27.162 163.374C27.1202 163.299 27.0986 163.214 27.0994 163.128V139.823C27.0986 139.737 27.1202 139.652 27.162 139.577C27.2037 139.502 27.2642 139.44 27.3371 139.397L48.2561 127.657C48.3261 127.618 48.4045 127.597 48.4843 127.597C48.5641 127.597 48.6425 127.618 48.7125 127.657L69.6315 139.397C69.7044 139.44 69.7648 139.502 69.8066 139.577C69.8484 139.652 69.87 139.737 69.8692 139.823L69.8882 163.128Z"
        fill="white" fill-opacity="0.5" />
    <path
        d="M89.9761 82.1565V80.1565H91.5761L93.5511 73.5815C93.6844 73.1482 93.9304 72.8022 94.2891 72.5435C94.6477 72.2849 95.0434 72.1559 95.4761 72.1565H98.4761C98.9094 72.1565 99.3054 72.2859 99.6641 72.5445C100.023 72.8032 100.268 73.1489 100.401 73.5815L102.376 80.1565H103.976V82.1565H89.9761ZM95.9761 70.1565V65.1565H97.9761V70.1565H95.9761ZM101.926 72.6315L100.501 71.2065L104.051 67.6815L105.451 69.0815L101.926 72.6315ZM102.976 77.1565V75.1565H107.976V77.1565H102.976ZM92.0261 72.6315L88.5011 69.0815L89.9011 67.6815L93.4511 71.2065L92.0261 72.6315ZM85.9761 77.1565V75.1565H90.9761V77.1565H85.9761Z"
        fill="#103DA4" fill-opacity="0.5" />
    <defs>
        <clipPath id="clip0_0_1">
            <rect width="24" height="24" fill="white" transform="translate(206.211 176.491)" />
        </clipPath>
        <clipPath id="clip1_0_1">
            <rect width="24" height="24" fill="white" transform="translate(671.199 63.2003)" />
        </clipPath>
    </defs>
</svg>
    